<svg width="1392" height="5952" viewBox="0 0 1392 5952" fill="none" xmlns="http://www.w3.org/2000/svg">
<g clip-path="url(#clip0)">
<circle cx="859" cy="511" r="175" fill="#4754EB"/>
<circle cx="1103.5" cy="392.5" r="256.5" fill="white"/>
<path fill-rule="evenodd" clip-rule="evenodd" d="M244.05 426.264C310.398 442.981 329.702 527.755 383.714 569.758C434.801 609.486 528.03 601.674 548.54 663.054C569.017 724.336 503.691 779.569 472.782 836.309C448.322 881.211 424.688 924.265 387.266 959.109C344.943 998.516 301.388 1041.77 244.05 1049.28C183.044 1057.28 125.119 1029.29 70.6872 1000.6C7.6388 967.375 -68.45 938.402 -93.1742 871.56C-118.068 804.258 -76.89 733.145 -53.3112 665.37C-30.2788 599.167 -12.831 527.533 41.7951 483.609C97.7758 438.595 174.393 408.714 244.05 426.264Z" fill="#4754EB"/>
<path fill-rule="evenodd" clip-rule="evenodd" d="M150.118 588.223C192.925 592.574 241.124 593.835 270.453 625.321C300.273 657.333 294.889 706.388 300.599 749.767C306.894 797.586 329.078 848.816 305.407 890.839C281.467 933.338 229.404 953.089 181.355 961.456C138.637 968.894 99.3655 945.16 57.4634 934.015C15.4568 922.841 -37.0559 930.31 -63.9951 896.194C-90.9157 862.101 -70.0366 812.712 -72.5681 769.342C-75.1215 725.597 -103.875 677.245 -78.8758 641.257C-53.8341 605.209 0.746221 612.158 43.5023 602.256C79.2995 593.965 113.563 584.508 150.118 588.223Z" fill="#8633B0"/>
<path fill-rule="evenodd" clip-rule="evenodd" d="M666.114 184.431C667.139 252.845 590.25 293.433 563.658 356.475C538.505 416.104 570.181 504.134 516.201 539.832C462.307 575.472 392.048 526.667 329.242 511.497C279.539 499.491 231.835 487.806 188.493 460.678C139.475 429.996 86.4241 399.119 64.3248 345.68C40.8115 288.822 52.8554 225.627 66.4764 165.625C82.2536 96.1252 90.5462 15.1303 148.712 -26.0515C207.277 -67.5165 286.625 -46.1467 358.193 -40.9125C428.101 -35.7997 501.81 -37.4866 558.376 3.90966C616.345 46.3325 665.038 112.606 666.114 184.431Z" fill="white"/>
<path fill-rule="evenodd" clip-rule="evenodd" d="M1227.7 1533.66C1302.35 1505.18 1388.13 1479.58 1425.8 1409.32C1464.11 1337.89 1431.27 1253.18 1421 1173.19C1409.68 1085.02 1425.22 983.083 1362.94 919.747C1299.96 855.693 1197.33 845.76 1107.27 854.145C1027.21 861.6 968.057 922.875 898.239 963.017C828.247 1003.26 730.617 1015.4 698.468 1089.19C666.341 1162.92 727.099 1240.72 743.06 1319.15C759.16 1398.25 730.487 1498.25 792.294 1550.2C854.204 1602.24 948.725 1563.43 1030.02 1560.34C1098.09 1557.75 1163.95 1557.99 1227.7 1533.66Z" fill="#4754EB"/>
<path fill-rule="evenodd" clip-rule="evenodd" d="M992.523 895.899C938.927 945.423 979.403 1031.79 965.104 1101.43C955.526 1148.08 923.114 1187.83 922.895 1235.01C922.637 1290.47 920.119 1356.86 963.76 1390.59C1007.39 1424.32 1074.72 1383.63 1129.85 1395C1198.25 1409.11 1253.73 1488.98 1320.62 1464.18C1385.23 1440.23 1396.19 1353.65 1415.45 1289.11C1432.08 1233.4 1442.99 1174.23 1423.01 1121.14C1404.56 1072.12 1348.87 1052.2 1312.17 1014.7C1271.07 972.718 1251.41 909.444 1195.4 888.628C1131.6 864.914 1043.93 848.401 992.523 895.899Z" fill="#8633B0"/>
<path fill-rule="evenodd" clip-rule="evenodd" d="M1077.18 2216.08C1125.37 2255.77 1175.82 2304.31 1238.67 2301.23C1302.56 2298.09 1348.4 2240.42 1399.62 2200.26C1456.07 2156 1532.29 2124.55 1552.14 2055.42C1572.2 1985.51 1539.8 1910.65 1499.58 1852.03C1463.82 1799.92 1398.95 1784.48 1344.57 1752.95C1290.06 1721.34 1244.35 1659.06 1181.19 1667.41C1118.07 1675.76 1087.67 1749.82 1039.71 1793.26C991.332 1837.07 911.425 1858.66 899.251 1922.76C887.057 1986.96 949.965 2036.07 983.187 2090.84C1011 2136.69 1036.03 2182.2 1077.18 2216.08Z" fill="white"/>
<path fill-rule="evenodd" clip-rule="evenodd" d="M1309.94 2658.72C1367.72 2663.79 1425.47 2682.35 1467.24 2722.68C1506.06 2760.16 1507.53 2818.62 1527.53 2868.79C1549.52 2923.93 1601.11 2972.51 1590.11 3030.86C1578.87 3090.47 1527.98 3140.06 1472.03 3163.2C1420.57 3184.48 1365.55 3149.24 1309.94 3146.72C1258.14 3144.36 1203.12 3174.88 1158.2 3148.93C1112.28 3122.4 1093.22 3065.89 1080.68 3014.28C1068.87 2965.62 1082.2 2917.49 1089.99 2868.02C1099.54 2807.38 1086.83 2735.45 1131.25 2693.17C1176.34 2650.27 1248 2653.28 1309.94 2658.72Z" fill="#8633B0"/>
<path fill-rule="evenodd" clip-rule="evenodd" d="M1479.77 3002.79C1447.05 3012.45 1416.14 3019.77 1382.43 3025.01C1334.34 3032.48 1283.03 3064.1 1240.8 3039.91C1198.48 3015.67 1179.76 2958.73 1181.44 2909.87C1182.99 2864.7 1223.91 2833.75 1249.16 2796.28C1269.12 2766.67 1284.1 2734.17 1313.49 2713.92C1344.72 2692.41 1381 2678.56 1418.87 2679.37C1458.98 2680.22 1494.57 2698.87 1529.56 2718.51C1574.73 2743.88 1634.09 2760.49 1650.8 2809.62C1667.65 2859.15 1645.57 2918.37 1610.88 2957.55C1579.43 2993.07 1525.22 2989.37 1479.77 3002.79Z" fill="#EB478B"/>
<path fill-rule="evenodd" clip-rule="evenodd" d="M952.695 3681.93C956.329 3616.92 950.791 3538.09 1000.85 3497.84C1050.94 3457.57 1123.77 3488.06 1187.28 3493.33C1241.25 3497.8 1294.04 3501.38 1342.48 3526.15C1396.04 3553.55 1457.44 3583.39 1476.73 3641.36C1495.89 3698.94 1450.39 3755.42 1438.6 3815.04C1425.66 3880.48 1447.32 3956.98 1404.36 4007.26C1359.74 4059.47 1284.85 4075.71 1217.06 4074.3C1152.17 4072.94 1087.73 4046.45 1041.69 3999.68C1000.16 3957.5 998.09 3893.05 981.976 3835.52C967.579 3784.12 949.71 3735.31 952.695 3681.93Z" fill="#4754EB"/>
<path fill-rule="evenodd" clip-rule="evenodd" d="M1010.96 3754.07C1036.46 3726.72 1061.53 3702.6 1090.36 3678.94C1131.49 3645.18 1162.56 3586.51 1215.34 3586.31C1268.25 3586.11 1316.7 3630.28 1341.61 3678C1364.63 3722.11 1342.96 3774.39 1339.55 3824.24C1336.85 3863.65 1340.39 3903.06 1323.76 3938.71C1306.08 3976.58 1279.5 4009.92 1243.49 4030.09C1205.34 4051.47 1161.8 4053.31 1118.28 4053.85C1062.09 4054.55 997.323 4071.48 954.987 4033.68C912.308 3995.57 900.955 3926.64 912.306 3869.94C922.599 3818.51 975.535 3792.07 1010.96 3754.07Z" fill="#8633B0"/>
<path fill-rule="evenodd" clip-rule="evenodd" d="M-436.129 3628.56C-450.067 3558.69 -479.613 3483.36 -445.593 3420.44C-410.445 3355.44 -335.034 3314.34 -260.627 3303.98C-191.271 3294.32 -126.284 3332.36 -66.1845 3367.59C-17.4263 3396.16 10.9315 3443.72 48.712 3485.27C92.0657 3532.94 155.751 3566.54 171.132 3628.56C188.234 3697.51 176.086 3774.71 135.001 3833.19C93.4367 3892.34 24.0335 3933.64 -48.8723 3941.66C-116.09 3949.05 -173.642 3903.12 -234.28 3873.79C-285.029 3849.25 -337.359 3828.11 -372.866 3784.97C-409.712 3740.2 -424.873 3684.97 -436.129 3628.56Z" fill="white"/>
<circle cx="414" cy="1710" r="294" fill="white"/>
<circle cx="207" cy="1849" r="175" fill="#EB478B"/>
<g opacity="0.75">
<path fill-rule="evenodd" clip-rule="evenodd" d="M-130.054 5079.35C-112.709 5003.45 -148.357 4908.75 -90.2769 4854.92C-32.0348 4800.94 66.4382 4806.81 148.239 4821.43C219.318 4834.13 266.001 4894.23 328.544 4929.76C395.309 4967.7 501.33 4966.97 526.552 5036.39C552.016 5106.47 454.706 5160.39 438.214 5231.61C420.76 5306.99 477.217 5397.19 428.817 5458.47C379.305 5521.16 283.086 5539.14 199.176 5534.26C119.328 5529.62 55.3306 5475.68 -11.9108 5432.85C-78.39 5390.51 -164.994 5358.94 -189.031 5287.02C-212.845 5215.76 -146.491 5151.26 -130.054 5079.35Z" fill="#4754EB"/>
<path fill-rule="evenodd" clip-rule="evenodd" d="M-220.07 5117.38C-226.436 5068.36 -240.834 5016.99 -215.825 4972.99C-188.954 4925.71 -138.42 4890.31 -81.8853 4874.26C-25.561 4858.27 35.2953 4867.3 90.5631 4886.01C143.801 4904.03 199.241 4930.67 222.281 4977.2C244.094 5021.27 213.628 5069.8 205.107 5117.38C198.235 5155.75 201.409 5196.02 177.301 5228.35C152.596 5261.47 112.456 5280.71 71.5589 5296.47C26.7142 5313.75 -20.9035 5333.69 -68.2478 5322.99C-116.851 5312 -153.621 5276.72 -181.242 5239.32C-207.937 5203.16 -214.482 5160.41 -220.07 5117.38Z" fill="#8633B0"/>
</g>
<path fill-rule="evenodd" clip-rule="evenodd" d="M695.742 4296.49C692.13 4353.32 634.253 4392.8 603.904 4443.48C565.533 4507.57 571.499 4602.66 494.652 4632.35C418.849 4661.63 338.984 4599.02 260.147 4576.3C182.537 4553.93 90.6527 4553.7 37.4425 4500.57C-17.1677 4446.04 -32.1887 4367.46 -20.0709 4296.49C-8.84571 4230.74 50.7412 4182.6 100.464 4131.47C146.651 4083.97 189.359 4030.52 257.857 4010.67C326.821 3990.68 402.954 4000.82 470.428 4024.23C534.52 4046.45 583.455 4089.22 623.357 4137.43C662.772 4185.06 699.442 4238.27 695.742 4296.49Z" fill="white"/>
<g opacity="0.75">
<path fill-rule="evenodd" clip-rule="evenodd" d="M970.883 4400.68C978.741 4459.03 1015.42 4505.78 1048.72 4554.23C1082.95 4604.04 1113.14 4658.27 1166.81 4685.74C1226.26 4716.18 1295.06 4728.65 1360.08 4713.62C1428.74 4697.74 1490.88 4657.64 1533.22 4601.02C1576 4543.81 1613.34 4469.58 1594.07 4400.68C1575.34 4333.7 1491.86 4314.56 1440.17 4268.3C1403.01 4235.05 1374.54 4197.19 1334.12 4168.05C1274.15 4124.81 1221.22 4047.66 1148.1 4057.72C1076.17 4067.61 1036.32 4148.85 1002.85 4213.62C973.112 4271.17 962.228 4336.41 970.883 4400.68Z" fill="#8633B0"/>
<path fill-rule="evenodd" clip-rule="evenodd" d="M1207.27 4556.58C1166.08 4520.61 1147.26 4467.53 1132.49 4414.72C1119.61 4368.67 1118.43 4321.54 1128.46 4274.78C1138.46 4228.13 1156.65 4183.83 1189.4 4149.3C1224.12 4112.68 1269.57 4092.04 1317.21 4075.74C1378.2 4054.87 1440.58 4025.09 1502.76 4042.06C1573.38 4061.33 1643.82 4105.31 1672.92 4172.82C1701.95 4240.16 1685.76 4321.83 1651.23 4386.49C1621.1 4442.9 1548.4 4454.46 1500.17 4496.29C1453.57 4536.72 1435.07 4613.9 1374.77 4626.31C1314.08 4638.8 1254.04 4597.42 1207.27 4556.58Z" fill="#EB478B"/>
</g>
</g>
<defs>
<clipPath id="clip0">
<rect width="1392" height="5952" rx="24" fill="white"/>
</clipPath>
</defs>
</svg>
