<svg width="136" height="25" viewBox="0 0 136 25" fill="none" xmlns="http://www.w3.org/2000/svg">
<path d="M12.8967 1.68721C12.5299 0.943963 11.4701 0.943966 11.1033 1.68721L8.14126 7.68889L1.518 8.65131C0.697782 8.77049 0.370276 9.77847 0.963791 10.357L5.75642 15.0287L4.62503 21.6252C4.48492 22.4421 5.34236 23.065 6.07598 22.6793L12 19.5649L17.924 22.6793C18.6576 23.065 19.5151 22.4421 19.375 21.6252L18.2436 15.0287L23.0362 10.357C23.6297 9.77847 23.3022 8.77049 22.482 8.65131L15.8587 7.68889L12.8967 1.68721Z" fill="#4754EB" stroke="url(#paint0_linear)"/>
<path d="M40.8967 1.68721C40.5299 0.943963 39.4701 0.943966 39.1033 1.68721L36.1413 7.68889L29.518 8.65131C28.6978 8.77049 28.3703 9.77847 28.9638 10.357L33.7564 15.0287L32.625 21.6252C32.4849 22.4421 33.3424 23.065 34.076 22.6793L40 19.5649L45.924 22.6793C46.6576 23.065 47.5151 22.4421 47.375 21.6252L46.2436 15.0287L51.0362 10.357C51.6297 9.77847 51.3022 8.77049 50.482 8.65131L43.8587 7.68889L40.8967 1.68721Z" fill="#4754EB" stroke="url(#paint1_linear)"/>
<path d="M68.8967 1.68721C68.5299 0.943963 67.4701 0.943966 67.1033 1.68721L64.1413 7.68889L57.518 8.65131C56.6978 8.77049 56.3703 9.77847 56.9638 10.357L61.7564 15.0287L60.625 21.6252C60.4849 22.4421 61.3424 23.065 62.076 22.6793L68 19.5649L73.924 22.6793C74.6576 23.065 75.5151 22.4421 75.375 21.6252L74.2436 15.0287L79.0362 10.357C79.6297 9.77847 79.3022 8.77049 78.482 8.65131L71.8587 7.68889L68.8967 1.68721Z" fill="#4754EB" stroke="url(#paint2_linear)"/>
<path d="M96.8967 1.68721C96.5299 0.943963 95.4701 0.943966 95.1033 1.68721L92.1413 7.68889L85.518 8.65131C84.6978 8.77049 84.3703 9.77847 84.9638 10.357L89.7564 15.0287L88.625 21.6252C88.4849 22.4421 89.3424 23.065 90.076 22.6793L96 19.5649L101.924 22.6793C102.658 23.065 103.515 22.4421 103.375 21.6252L102.244 15.0287L107.036 10.357C107.63 9.77847 107.302 8.77049 106.482 8.65131L99.8587 7.68889L96.8967 1.68721Z" fill="#4754EB" stroke="url(#paint3_linear)"/>
<path d="M124.897 1.68721C124.53 0.943963 123.47 0.943966 123.103 1.68721L120.141 7.68889L113.518 8.65131C112.698 8.77049 112.37 9.77847 112.964 10.357L117.756 15.0287L116.625 21.6252C116.485 22.4421 117.342 23.065 118.076 22.6793L124 19.5649L129.924 22.6793C130.658 23.065 131.515 22.4421 131.375 21.6252L130.244 15.0287L135.036 10.357C135.63 9.77847 135.302 8.77049 134.482 8.65131L127.859 7.68889L124.897 1.68721Z" fill="#D9D9D9" stroke="url(#paint4_linear)"/>
<defs>
<linearGradient id="paint0_linear" x1="24" y1="0.999999" x2="-2.14577e-06" y2="25" gradientUnits="userSpaceOnUse">
<stop stop-color="white" stop-opacity="0.5"/>
<stop offset="1" stop-color="white" stop-opacity="0"/>
</linearGradient>
<linearGradient id="paint1_linear" x1="52" y1="0.999999" x2="28" y2="25" gradientUnits="userSpaceOnUse">
<stop stop-color="white" stop-opacity="0.5"/>
<stop offset="1" stop-color="white" stop-opacity="0"/>
</linearGradient>
<linearGradient id="paint2_linear" x1="80" y1="0.999999" x2="56" y2="25" gradientUnits="userSpaceOnUse">
<stop stop-color="white" stop-opacity="0.5"/>
<stop offset="1" stop-color="white" stop-opacity="0"/>
</linearGradient>
<linearGradient id="paint3_linear" x1="108" y1="0.999999" x2="84" y2="25" gradientUnits="userSpaceOnUse">
<stop stop-color="white" stop-opacity="0.5"/>
<stop offset="1" stop-color="white" stop-opacity="0"/>
</linearGradient>
<linearGradient id="paint4_linear" x1="136" y1="0.999999" x2="112" y2="25" gradientUnits="userSpaceOnUse">
<stop stop-color="white" stop-opacity="0.5"/>
<stop offset="1" stop-color="white" stop-opacity="0"/>
</linearGradient>
</defs>
</svg>
