<svg width="1392" height="5952" fill="none" xmlns="http://www.w3.org/2000/svg"><g clip-path="url(#clip0)"><circle cx="859" cy="511" r="175" fill="#4754EB"/><circle cx="1103.5" cy="392.5" r="256.5" fill="#fff"/><path fill-rule="evenodd" clip-rule="evenodd" d="M244.05 426.264c66.348 16.717 85.652 101.491 139.664 143.494 51.087 39.728 144.316 31.916 164.826 93.296 20.477 61.282-44.849 116.515-75.758 173.255-24.46 44.902-48.094 87.956-85.516 122.8-42.323 39.407-85.878 82.661-143.216 90.171-61.006 8-118.931-19.99-173.363-48.68C7.64 967.375-68.45 938.402-93.174 871.56c-24.894-67.302 16.284-138.415 39.863-206.19 23.032-66.203 40.48-137.837 95.106-181.761 55.98-45.014 132.598-74.895 202.255-57.345z" fill="#4754EB"/><path fill-rule="evenodd" clip-rule="evenodd" d="M150.118 588.223c42.807 4.351 91.006 5.612 120.335 37.098 29.82 32.012 24.436 81.067 30.146 124.446 6.295 47.819 28.479 99.049 4.808 141.072-23.94 42.499-76.003 62.25-124.052 70.617-42.718 7.438-81.99-16.296-123.892-27.441-42.006-11.174-94.519-3.705-121.458-37.821-26.92-34.093-6.042-83.482-8.573-126.852-2.553-43.745-31.307-92.097-6.308-128.085 25.042-36.048 79.622-29.099 122.378-39.001 35.797-8.291 70.061-17.748 106.616-14.033z" fill="#8633B0"/><path fill-rule="evenodd" clip-rule="evenodd" d="M666.114 184.431c1.025 68.414-75.864 109.002-102.456 172.044-25.153 59.629 6.523 147.659-47.457 183.357-53.894 35.64-124.153-13.165-186.959-28.335-49.703-12.006-97.407-23.691-140.749-50.819-49.018-30.682-102.069-61.559-124.168-114.998-23.514-56.858-11.47-120.053 2.151-180.055 15.778-69.5 24.07-150.495 82.236-191.677 58.565-41.464 137.913-20.095 209.481-14.86C428.101-35.8 501.81-37.488 558.376 3.91c57.969 42.422 106.662 108.696 107.738 180.521z" fill="#fff"/><path fill-rule="evenodd" clip-rule="evenodd" d="M1227.7 1533.66c74.65-28.48 160.43-54.08 198.1-124.34 38.31-71.43 5.47-156.14-4.8-236.13-11.32-88.17 4.22-190.107-58.06-253.443-62.98-64.054-165.61-73.987-255.67-65.602-80.06 7.455-139.213 68.73-209.031 108.872-69.992 40.243-167.622 52.383-199.771 126.173-32.127 73.73 28.631 151.53 44.592 229.96 16.1 79.1-12.573 179.1 49.234 231.05 61.91 52.04 156.431 13.23 237.726 10.14 68.07-2.59 133.93-2.35 197.68-26.68z" fill="#4754EB"/><path fill-rule="evenodd" clip-rule="evenodd" d="M992.523 895.899c-53.596 49.524-13.12 135.891-27.419 205.531-9.578 46.65-41.99 86.4-42.209 133.58-.258 55.46-2.776 121.85 40.865 155.58 43.63 33.73 110.96-6.96 166.09 4.41 68.4 14.11 123.88 93.98 190.77 69.18 64.61-23.95 75.57-110.53 94.83-175.07 16.63-55.71 27.54-114.88 7.56-167.97-18.45-49.02-74.14-68.94-110.84-106.44-41.1-41.982-60.76-105.256-116.77-126.072-63.8-23.714-151.47-40.227-202.877 7.271z" fill="#8633B0"/><path fill-rule="evenodd" clip-rule="evenodd" d="M1077.18 2216.08c48.19 39.69 98.64 88.23 161.49 85.15 63.89-3.14 109.73-60.81 160.95-100.97 56.45-44.26 132.67-75.71 152.52-144.84 20.06-69.91-12.34-144.77-52.56-203.39-35.76-52.11-100.63-67.55-155.01-99.08-54.51-31.61-100.22-93.89-163.38-85.54-63.12 8.35-93.52 82.41-141.48 125.85-48.378 43.81-128.285 65.4-140.459 129.5-12.194 64.2 50.714 113.31 83.936 168.08 27.813 45.85 52.843 91.36 93.993 125.24z" fill="#fff"/><path fill-rule="evenodd" clip-rule="evenodd" d="M1309.94 2658.72c57.78 5.07 115.53 23.63 157.3 63.96 38.82 37.48 40.29 95.94 60.29 146.11 21.99 55.14 73.58 103.72 62.58 162.07-11.24 59.61-62.13 109.2-118.08 132.34-51.46 21.28-106.48-13.96-162.09-16.48-51.8-2.36-106.82 28.16-151.74 2.21-45.92-26.53-64.98-83.04-77.52-134.65-11.81-48.66 1.52-96.79 9.31-146.26 9.55-60.64-3.16-132.57 41.26-174.85 45.09-42.9 116.75-39.89 178.69-34.45z" fill="#8633B0"/><path fill-rule="evenodd" clip-rule="evenodd" d="M1479.77 3002.79c-32.72 9.66-63.63 16.98-97.34 22.22-48.09 7.47-99.4 39.09-141.63 14.9-42.32-24.24-61.04-81.18-59.36-130.04 1.55-45.17 42.47-76.12 67.72-113.59 19.96-29.61 34.94-62.11 64.33-82.36 31.23-21.51 67.51-35.36 105.38-34.55 40.11.85 75.7 19.5 110.69 39.14 45.17 25.37 104.53 41.98 121.24 91.11 16.85 49.53-5.23 108.75-39.92 147.93-31.45 35.52-85.66 31.82-131.11 45.24z" fill="#EB478B"/><path fill-rule="evenodd" clip-rule="evenodd" d="M952.695 3681.93c3.634-65.01-1.904-143.84 48.155-184.09 50.09-40.27 122.92-9.78 186.43-4.51 53.97 4.47 106.76 8.05 155.2 32.82 53.56 27.4 114.96 57.24 134.25 115.21 19.16 57.58-26.34 114.06-38.13 173.68-12.94 65.44 8.72 141.94-34.24 192.22-44.62 52.21-119.51 68.45-187.3 67.04-64.89-1.36-129.33-27.85-175.37-74.62-41.53-42.18-43.6-106.63-59.714-164.16-14.397-51.4-32.266-100.21-29.281-153.59z" fill="#4754EB"/><path fill-rule="evenodd" clip-rule="evenodd" d="M1010.96 3754.07c25.5-27.35 50.57-51.47 79.4-75.13 41.13-33.76 72.2-92.43 124.98-92.63 52.91-.2 101.36 43.97 126.27 91.69 23.02 44.11 1.35 96.39-2.06 146.24-2.7 39.41.84 78.82-15.79 114.47-17.68 37.87-44.26 71.21-80.27 91.38-38.15 21.38-81.69 23.22-125.21 23.76-56.19.7-120.957 17.63-163.293-20.17-42.679-38.11-54.032-107.04-42.681-163.74 10.293-51.43 63.229-77.87 98.654-115.87z" fill="#8633B0"/><path fill-rule="evenodd" clip-rule="evenodd" d="M-436.129 3628.56c-13.938-69.87-43.484-145.2-9.464-208.12 35.148-65 110.559-106.1 184.966-116.46 69.356-9.66 134.343 28.38 194.442 63.61 48.759 28.57 77.117 76.13 114.897 117.68 43.354 47.67 107.039 81.27 122.42 143.29 17.102 68.95 4.954 146.15-36.131 204.63-41.564 59.15-110.968 100.45-183.873 108.47-67.218 7.39-124.77-38.54-185.408-67.87-50.749-24.54-103.079-45.68-138.586-88.82-36.846-44.77-52.007-100-63.263-156.41z" fill="#fff"/><circle cx="414" cy="1710" r="294" fill="#fff"/><circle cx="207" cy="1849" r="175" fill="#EB478B"/><g opacity=".75" fill-rule="evenodd" clip-rule="evenodd"><path d="M-130.054 5079.35c17.345-75.9-18.303-170.6 39.777-224.43 58.242-53.98 156.715-48.11 238.516-33.49 71.079 12.7 117.762 72.8 180.305 108.33 66.765 37.94 172.786 37.21 198.008 106.63 25.464 70.08-71.846 124-88.338 195.22-17.454 75.38 39.003 165.58-9.397 226.86-49.512 62.69-145.731 80.67-229.641 75.79-79.848-4.64-143.845-58.58-211.087-101.41-66.479-42.34-153.083-73.91-177.12-145.83-23.814-71.26 42.54-135.76 58.977-207.67z" fill="#4754EB"/><path d="M-220.07 5117.38c-6.366-49.02-20.764-100.39 4.245-144.39 26.871-47.28 77.405-82.68 133.94-98.73 56.324-15.99 117.18-6.96 172.448 11.75 53.238 18.02 108.678 44.66 131.718 91.19 21.813 44.07-8.653 92.6-17.174 140.18-6.872 38.37-3.698 78.64-27.806 110.97-24.705 33.12-64.845 52.36-105.742 68.12-44.845 17.28-92.463 37.22-139.807 26.52-48.603-10.99-85.373-46.27-112.994-83.67-26.695-36.16-33.24-78.91-38.828-121.94z" fill="#8633B0"/></g><path fill-rule="evenodd" clip-rule="evenodd" d="M695.742 4296.49c-3.612 56.83-61.489 96.31-91.838 146.99-38.371 64.09-32.405 159.18-109.252 188.87-75.803 29.28-155.668-33.33-234.505-56.05-77.61-22.37-169.494-22.6-222.704-75.73-54.61-54.53-69.632-133.11-57.514-204.08 11.225-65.75 70.812-113.89 120.535-165.02 46.187-47.5 88.895-100.95 157.393-120.8 68.964-19.99 145.097-9.85 212.571 13.56 64.092 22.22 113.027 64.99 152.929 113.2 39.415 47.63 76.085 100.84 72.385 159.06z" fill="#fff"/><g opacity=".75" fill-rule="evenodd" clip-rule="evenodd"><path d="M970.883 4400.68c7.858 58.35 44.537 105.1 77.837 153.55 34.23 49.81 64.42 104.04 118.09 131.51 59.45 30.44 128.25 42.91 193.27 27.88 68.66-15.88 130.8-55.98 173.14-112.6 42.78-57.21 80.12-131.44 60.85-200.34-18.73-66.98-102.21-86.12-153.9-132.38-37.16-33.25-65.63-71.11-106.05-100.25-59.97-43.24-112.9-120.39-186.02-110.33-71.93 9.89-111.78 91.13-145.25 155.9-29.738 57.55-40.622 122.79-31.967 187.06z" fill="#8633B0"/><path d="M1207.27 4556.58c-41.19-35.97-60.01-89.05-74.78-141.86-12.88-46.05-14.06-93.18-4.03-139.94 10-46.65 28.19-90.95 60.94-125.48 34.72-36.62 80.17-57.26 127.81-73.56 60.99-20.87 123.37-50.65 185.55-33.68 70.62 19.27 141.06 63.25 170.16 130.76 29.03 67.34 12.84 149.01-21.69 213.67-30.13 56.41-102.83 67.97-151.06 109.8-46.6 40.43-65.1 117.61-125.4 130.02-60.69 12.49-120.73-28.89-167.5-69.73z" fill="#EB478B"/></g></g><defs><clipPath id="clip0"><rect width="1392" height="5952" rx="24" fill="#fff"/></clipPath></defs></svg>