<svg width="513" height="513" fill="none" xmlns="http://www.w3.org/2000/svg"><g filter="url(#filter0_bd)"><g clip-path="url(#clip0)"><rect x="26" y="8" width="465" height="465" rx="232.5" fill="#F2F2F2"/><path fill-rule="evenodd" clip-rule="evenodd" d="M294.901-19.641c-51.12 2.964-93.257 42.26-125.307 82.197-26.802 33.398-25.886 78.391-36.8 119.801-10.103 38.329-34.044 74.846-24.653 113.356 9.681 39.698 47.213 63.184 75.009 93.133 36.139 38.937 59.963 96.253 111.751 108.089 54.336 12.419 118.921-5.446 156.251-46.837 36.143-40.075 15.248-102.915 26.424-155.712 9.491-44.842 42.455-84.711 34.002-129.761-8.957-47.733-43.354-85.778-80.35-117.24-39.543-33.628-84.507-70.03-136.327-67.026z" fill="#4754EB"/><path fill-rule="evenodd" clip-rule="evenodd" d="M337.162 152.495c-42.475-2.094-88.778-26.439-124.418-3.225-35.737 23.278-43.103 72.952-47.737 115.363-3.966 36.303 19.843 67.894 23.749 104.204 5.52 51.321-33.573 115.329 3.702 151.018 35.79 34.267 97.294 5.445 144.704-8.925 36.587-11.089 60.716-41.712 92.496-62.968 33.656-22.511 86.485-26.598 99.005-65.117 12.518-38.517-28.708-72.586-41.791-110.916-12.791-37.473-2.947-86.127-33.893-110.815-31.026-24.752-76.181-6.665-115.817-8.619z" fill="#8633B0"/><path fill-rule="evenodd" clip-rule="evenodd" d="M382.873 217.106c-28.351-3.055-51.034 21.377-74.52 37.538-24.187 16.642-52.437 30.52-63.743 57.602-11.716 28.064-10.973 61.719 2.56 88.954 12.748 25.655 41.6 37.068 66.822 50.678 21.793 11.76 44.117 22.94 68.881 22.552 24.503-.385 46.428-11.904 67.328-24.689 22.679-13.874 53.891-25.67 57.925-51.935 4.1-26.698-27.734-44.18-39.423-68.535-9.419-19.625-8.908-42.444-22.138-59.734-17.128-22.383-35.658-49.41-63.692-52.431z" fill="#EB478B"/></g></g><defs><clipPath id="clip0"><rect x="26" y="8" width="465" height="465" rx="232.5" fill="#fff"/></clipPath><filter id="filter0_bd" x="-214" y="-232" width="945" height="945" filterUnits="userSpaceOnUse" color-interpolation-filters="sRGB"><feFlood flood-opacity="0" result="BackgroundImageFix"/><feGaussianBlur in="BackgroundImage" stdDeviation="120"/><feComposite in2="SourceAlpha" operator="in" result="effect1_backgroundBlur"/><feColorMatrix in="SourceAlpha" values="0 0 0 0 0 0 0 0 0 0 0 0 0 0 0 0 0 0 127 0"/><feOffset dx="-2" dy="16"/><feGaussianBlur stdDeviation="12"/><feColorMatrix values="0 0 0 0 0.0980392 0 0 0 0 0.0980392 0 0 0 0 0.0980392 0 0 0 0.05 0"/><feBlend in2="effect1_backgroundBlur" result="effect2_dropShadow"/><feBlend in="SourceGraphic" in2="effect2_dropShadow" result="shape"/></filter></defs></svg>