<svg width="136" height="25" fill="none" xmlns="http://www.w3.org/2000/svg"><path d="M12.897 1.687a1 1 0 00-1.794 0L8.141 7.69l-6.623.962a1 1 0 00-.554 1.706l4.792 4.672-1.131 6.596a1 1 0 001.451 1.054L12 19.565l5.924 3.114a1 1 0 001.451-1.054l-1.131-6.596 4.792-4.672a1 1 0 00-.554-1.706l-6.623-.962-2.962-6.002z" fill="#4754EB" stroke="url(#paint0_linear)"/><path d="M40.897 1.687a1 1 0 00-1.794 0L36.141 7.69l-6.623.962a1 1 0 00-.554 1.706l4.792 4.672-1.131 6.596a1 1 0 001.451 1.054L40 19.565l5.924 3.114a1 1 0 001.451-1.054l-1.131-6.596 4.792-4.672a1 1 0 00-.554-1.706l-6.623-.962-2.962-6.002z" fill="#4754EB" stroke="url(#paint1_linear)"/><path d="M68.897 1.687a1 1 0 00-1.794 0L64.141 7.69l-6.623.962a1 1 0 00-.554 1.706l4.792 4.672-1.131 6.596a1 1 0 001.451 1.054L68 19.565l5.924 3.114a1 1 0 001.451-1.054l-1.131-6.596 4.792-4.672a1 1 0 00-.554-1.706l-6.623-.962-2.962-6.002z" fill="#4754EB" stroke="url(#paint2_linear)"/><path d="M96.897 1.687a1 1 0 00-1.794 0L92.141 7.69l-6.623.962a1 1 0 00-.554 1.706l4.792 4.672-1.131 6.596a1 1 0 001.451 1.054L96 19.565l5.924 3.114a1 1 0 001.451-1.054l-1.131-6.596 4.792-4.672a1 1 0 00-.554-1.706l-6.623-.962-2.962-6.002z" fill="#4754EB" stroke="url(#paint3_linear)"/><path d="M124.897 1.687a1 1 0 00-1.794 0l-2.962 6.002-6.623.962a1 1 0 00-.554 1.706l4.792 4.672-1.131 6.596a1 1 0 001.451 1.054L124 19.565l5.924 3.114a1 1 0 001.451-1.054l-1.131-6.596 4.792-4.672a1 1 0 00-.554-1.706l-6.623-.962-2.962-6.002z" fill="#D9D9D9" stroke="url(#paint4_linear)"/><defs><linearGradient id="paint0_linear" x1="24" y1="1" x2="0" y2="25" gradientUnits="userSpaceOnUse"><stop stop-color="#fff" stop-opacity=".5"/><stop offset="1" stop-color="#fff" stop-opacity="0"/></linearGradient><linearGradient id="paint1_linear" x1="52" y1="1" x2="28" y2="25" gradientUnits="userSpaceOnUse"><stop stop-color="#fff" stop-opacity=".5"/><stop offset="1" stop-color="#fff" stop-opacity="0"/></linearGradient><linearGradient id="paint2_linear" x1="80" y1="1" x2="56" y2="25" gradientUnits="userSpaceOnUse"><stop stop-color="#fff" stop-opacity=".5"/><stop offset="1" stop-color="#fff" stop-opacity="0"/></linearGradient><linearGradient id="paint3_linear" x1="108" y1="1" x2="84" y2="25" gradientUnits="userSpaceOnUse"><stop stop-color="#fff" stop-opacity=".5"/><stop offset="1" stop-color="#fff" stop-opacity="0"/></linearGradient><linearGradient id="paint4_linear" x1="136" y1="1" x2="112" y2="25" gradientUnits="userSpaceOnUse"><stop stop-color="#fff" stop-opacity=".5"/><stop offset="1" stop-color="#fff" stop-opacity="0"/></linearGradient></defs></svg>